<?xml version="1.0" encoding="utf-8"?>
<!-- Generator: Adobe Illustrator 21.0.2, SVG Export Plug-In . SVG Version: 6.00 Build 0)  -->
<svg version="1.1" id="Layer_1" xmlns="http://www.w3.org/2000/svg" xmlns:xlink="http://www.w3.org/1999/xlink" x="0px" y="0px"
	 viewBox="0 0 36 30" style="enable-background:new 0 0 36 30;" xml:space="preserve">
<style type="text/css">
	.st0{fill:#FFFFFF;}
</style>
<path class="st0" d="M31.4,25.3c0.1-0.6-0.2-1.1-0.7-1.7c-0.5-0.5-1.4-1.1-2.5-1.7c-3.4-1.7-5.7-2.1-7.4-2.3
	c-0.7-0.1-1.2-0.2-1.7-0.3c0.5-0.6,0.9-1.4,1-2.3c0-0.5,0-0.9-0.1-1.4c0.1,0,0.3,0,0.4-0.1c0,0,0.1,0,0.1-0.1c0,0,0,0,0,0
	c0.4,0.2,0.9-0.2,1.3-0.9c0.2-0.3,0.2-0.6,0.2-0.9c0-0.2-0.1-0.4-0.2-0.5c0-0.3,0-0.6-0.1-0.8c0.4-0.2,0.8-0.5,1.2-0.7
	c0.7-0.3,1.4-0.6,2.1-0.8c0.8-0.2,1.5-0.4,2.2-0.5c0.4,0,0.8-0.1,1.1,0c0.4,0,0.7,0.1,1,0.2c0.1,0,0.2,0,0.2-0.1c0-0.1,0-0.2,0-0.2
	c0,0,0,0,0,0c-0.3-0.2-0.7-0.3-1.2-0.3c-0.4,0-0.7,0-1.2,0c-0.7,0.1-1.4,0.2-2.3,0.5c-0.7,0.2-1.5,0.5-2.1,0.8
	c-0.5,0.2-0.9,0.4-1.2,0.7c0,0,0,0,0-0.1c-0.1-0.1-0.2-0.2-0.4-0.3c0.2-0.4,0.5-0.8,0.7-1.2c0.3-0.7,0.6-1.4,0.8-2.1
	C22.8,7.4,22.9,6.7,23,6c0-0.4,0-0.8,0-1.2c0-0.5-0.1-0.8-0.3-1.2c0,0,0,0,0,0l0,0c-0.1-0.1-0.1-0.1-0.2,0c-0.1,0-0.1,0.2-0.1,0.2
	c0.1,0.3,0.2,0.6,0.2,1c0,0.3,0,0.7,0,1.1c-0.1,0.7-0.2,1.4-0.5,2.2c-0.2,0.7-0.5,1.4-0.8,2.1c-0.2,0.5-0.5,0.9-0.7,1.2
	c-0.2-0.1-0.5-0.1-0.7-0.1c0,0-0.1,0-0.1,0c-0.1-0.1-0.3-0.2-0.5-0.2c-0.3,0-0.6,0.1-0.9,0.2c-0.7,0.3-1,0.9-0.9,1.3c0,0,0,0,0,0
	c-0.1,0.2-0.1,0.4-0.2,0.6c-0.5-0.1-1-0.2-1.5-0.1c-0.8,0.1-1.6,0.4-2.2,1c-0.2-0.5-0.2-1.1-0.4-1.8c-0.2-1.7-0.6-3.9-2.3-7.4
	c-0.6-1.1-1.1-2-1.7-2.5C8.8,1.8,8.3,1.5,7.7,1.6c-1,0.1-1.6,1.6-1.5,3c0,0.5,0.1,1.1,0.1,1.6c0.1,0.6,0.1,1,0.1,1.3c0,0,0,0,0,0
	c0.9,0.2,2.1,0.8,2.8,1.4c0.5,0.4,2.9,2.8,4.4,5.3c0,0,0,0,0,0c-0.1,0.1-0.1,0.1-0.2,0.2c-1.1-1.8-2.6-3.5-3.6-4.4
	C9.3,9.4,9,9.1,9,9.1C8.2,8.4,7.1,7.9,6.2,7.7c-0.1,0-0.1,0-0.2,0c-0.1,0-0.2,0-0.2,0c-0.3,0-0.5,0-0.7,0.2C4.7,8.1,4.5,8.7,4.6,9.6
	c0.4,2.3,2,4.7,5,5.1c1.1,0.1,1.9,0.3,2.6,0.4c0.2,0,0.4,0.1,0.5,0.1c-0.2,0.4-0.3,0.8-0.4,1.2c-0.1,0.3-0.1,0.7,0,1
	c-0.4,0-0.9,0.1-1.4,0.2c-0.4,0.1-0.8,0.2-1.2,0.4c-0.3,0.1-0.5,0.2-0.7,0.4l0,0c-0.4,0.2-0.7,0.4-1.1,0.7c-0.2,0.2-0.4,0.3-0.6,0.5
	c0,0,0,0-0.1,0.1l0,0c-0.3,0.2-0.5,0.5-0.6,0.7c-0.1,0.1-0.1,0.2-0.2,0.3c-0.1,0.2-0.3,0.4-0.4,0.6c0,0.1-0.1,0.1-0.1,0.2l0,0.1
	c-0.2,0.4-0.3,0.8-0.5,1.3l0,0c0,0.1-0.1,0.2-0.1,0.3c-0.1,0.3-0.1,0.6-0.2,0.9C5.1,24.5,5,24.9,5,25.3c0,0.3,0,0.6,0,1
	c0,0.3,0.1,0.7,0.3,1c0,0.1,0.1,0.2,0.2,0.2c0.1,0.1,0.2,0.1,0.3,0.2c0.2,0.1,0.3,0.1,0.5,0.2C6.6,28,6.9,28,7.3,28
	c0.5,0,1,0,1.6-0.1c0.2,0,0.3,0,0.5-0.1c0.3,0,0.5-0.1,0.8-0.2c0.4-0.1,0.8-0.2,1.2-0.4l0.1,0c0.3-0.2,0.7-0.3,1-0.5
	c0.3-0.2,0.5-0.4,0.7-0.6c0.1-0.1,0.1-0.1,0.1-0.2l0.1-0.1c0.2-0.2,0.4-0.5,0.6-0.7c0.2-0.3,0.5-0.7,0.7-1c0.1-0.3,0.3-0.5,0.4-0.8
	c0.1-0.3,0.2-0.5,0.3-0.7c0.2-0.6,0.3-1.3,0.4-1.9c0.4,0,0.7,0,1.1,0c0.4-0.1,0.7-0.2,1.1-0.4c0,0.1,0.1,0.3,0.1,0.5
	c0.1,0.6,0.3,1.5,0.4,2.6c0.4,2.9,2.8,4.6,5.1,5c0.9,0.1,1.5,0,1.8-0.5c0.1-0.2,0.1-0.4,0.2-0.7c0-0.1,0-0.2,0-0.2
	c0-0.1,0-0.1,0-0.2c-0.1-0.9-0.7-2-1.4-2.7c0,0-0.3-0.3-0.8-0.8c-0.9-0.9-2.6-2.5-4.4-3.6c0.1-0.1,0.1-0.1,0.2-0.2
	c2.5,1.5,4.8,3.9,5.2,4.3c0.6,0.7,1.2,1.8,1.4,2.8c0,0,0,0,0,0c0.3,0,0.7,0,1.3,0.1c0.5,0.1,1,0.1,1.6,0.1
	C29.8,26.8,31.3,26.3,31.4,25.3z M21.2,13.5c0.2-0.1,0.3-0.2,0.4-0.1c0,0,0,0,0.1,0c0.1,0.1,0.1,0.2,0.1,0.3c0,0,0,0,0,0
	c0,0.2-0.1,0.5-0.2,0.8c-0.2,0.4-0.5,0.7-0.7,0.8c-0.1,0-0.1,0-0.2,0c-0.2-0.1-0.3-0.6,0-1.2C20.8,13.9,21,13.6,21.2,13.5z
	 M17.7,12.4c0-0.1,0-0.1,0-0.2c0.1-0.2,0.3-0.5,0.8-0.7c0.3-0.1,0.5-0.2,0.8-0.2c0,0,0,0,0,0c0.2,0,0.3,0.1,0.4,0.2
	c0.1,0.1,0,0.3-0.1,0.4c-0.1,0.2-0.4,0.4-0.6,0.5C18.3,12.7,17.8,12.6,17.7,12.4z M13.6,25c-0.2,0.2-0.4,0.5-0.6,0.7l0,0
	c-0.8-0.5-2-1.3-3.2-2.4c-1.2-1.2-2.1-2.6-2.5-3.3c0,0,0,0,0,0l0,0c0,0,0,0,0.1-0.1c0.2-0.1,0.3-0.3,0.6-0.5c0.4,0.7,1.2,2,2.4,3.2
	C11.6,23.8,12.9,24.6,13.6,25z M9.3,27.6c-0.2,0-0.3,0.1-0.5,0.1c0,0-0.1,0-0.1,0c-0.6-0.4-1.2-0.9-1.7-1.5
	c-0.6-0.6-1.2-1.3-1.6-1.9c0,0,0-0.1,0-0.1c0-0.3,0.1-0.6,0.2-0.9c0-0.1,0-0.1,0.1-0.2c0.4,0.7,1.1,1.6,1.9,2.4
	c0.8,0.8,1.7,1.5,2.4,1.9C9.7,27.5,9.5,27.5,9.3,27.6z M11.3,27L11.3,27c-0.9-0.4-1.9-1.1-2.9-2.2c-1.1-1.1-1.8-2.2-2.3-3
	c0,0,0-0.1,0-0.1l0-0.1c0-0.1,0.1-0.1,0.1-0.2c0.1-0.2,0.2-0.4,0.3-0.5c0.4,0.7,1.2,2,2.4,3.2c1.2,1.2,2.5,2,3.2,2.4
	C11.9,26.7,11.6,26.8,11.3,27z M14.3,24C14.3,24,14.3,24,14.3,24C14.3,24,14.3,24,14.3,24c-0.7-0.4-1.9-1.1-3-2.2
	c-1.2-1.2-1.9-2.4-2.2-3.1c0,0,0,0,0,0l0,0c0.2-0.1,0.5-0.2,0.7-0.4c0,0,0,0,0,0c0.3,0.7,1,1.8,2,2.8c1,1,2.1,1.6,2.8,2
	c0,0,0.1,0,0.1,0c0,0,0,0,0,0C14.6,23.5,14.4,23.8,14.3,24z"/>
</svg>
