<?xml version="1.0" encoding="utf-8"?>
<!-- Generator: Adobe Illustrator 21.0.2, SVG Export Plug-In . SVG Version: 6.00 Build 0)  -->
<svg version="1.1" id="Layer_1" xmlns="http://www.w3.org/2000/svg" xmlns:xlink="http://www.w3.org/1999/xlink" x="0px" y="0px"
	 viewBox="0 0 92 40" style="enable-background:new 0 0 92 40;" xml:space="preserve">
<style type="text/css">
	.st0{fill:#F06047;}
</style>
<g>
	<path class="st0" d="M16.3,17.6h-6.2v20.8H3.4V17.6H1v-3L3.4,14v-3.6c0-5.6,2-9.3,7.9-9.3c2.8,0,5.6,1.7,5.6,1.7l-0.8,2.8
		c0,0-2.1-1.2-3.5-1.2c-1.7,0-2.4,0.9-2.4,6.8v2.8h6.2V17.6z"/>
	<path class="st0" d="M29,39c-7.5,0-11.6-4.7-11.6-12.9S21.5,13.3,29,13.3c7.5,0,11.7,4.7,11.7,12.9S36.2,39,29,39z M24.5,26.1
		c0,7.1,1.2,9.7,4.5,9.7s4.5-2.5,4.5-9.6c0-7.1-1.2-9.6-4.5-9.6S24.5,19,24.5,26.1z"/>
	<path class="st0" d="M51.2,38.5h-6.6V1.7l6.6-0.4V38.5z"/>
	<path class="st0" d="M60.6,2.6c0.9,0,1.8,0.3,2.5,0.9c0.7,0.8,1.1,1.8,1.1,2.8c0,1-0.3,2.1-1.1,2.9c-0.7,0.6-1.6,0.9-2.5,0.9
		s-1.9-0.3-2.6-1c-0.7-0.7-1.1-1.8-1.1-2.8c0-1,0.4-2,1.1-2.8C58.7,2.9,59.6,2.6,60.6,2.6z M63.8,38.5h-6.6V13.8h6.6V38.5z"/>
	<path class="st0" d="M79.3,39c-7.5,0-11.6-4.7-11.6-12.9s4.1-12.9,11.6-12.9C86.9,13.3,91,18,91,26.1S86.5,39,79.3,39z M74.8,26.1
		c0,7.1,1.2,9.7,4.5,9.7c3.3,0,4.5-2.5,4.5-9.6c0-7.1-1.2-9.6-4.5-9.6C76,16.6,74.8,19,74.8,26.1z"/>
</g>
</svg>
