<?xml version="1.0" encoding="UTF-8" standalone="no"?>
<svg width="137px" height="34px" viewBox="0 0 137 34" version="1.1" xmlns="http://www.w3.org/2000/svg" xmlns:xlink="http://www.w3.org/1999/xlink">
    <!-- Generator: Sketch 3.8.3 (29802) - http://www.bohemiancoding.com/sketch -->
    <title>Group 15</title>
    <desc>Created with Sketch.</desc>
    <defs></defs>
    <g id="Page-1" stroke="none" stroke-width="1" fill="none" fill-rule="evenodd">
        <g id="FS-home-desktop" transform="translate(-648.000000, -47.000000)">
            <g id="//-Hero" transform="translate(20.000000, 20.000000)">
                <g id="::-main_nav" transform="translate(112.000000, 27.000000)">
                    <g id="Group-12" transform="translate(516.000000, 0.000000)">
                        <g id="Group-15">
                            <g id="FS_logo">
                                <g id="Page-1" transform="translate(0.490260, 0.000000)">
                                    <polygon id="Fill-1" fill="#14315D" points="14.7022667 0.0355930151 8.01193437e-06 8.55151732 8.01193437e-06 25.4546943 14.7022667 33.9706186 29.4045255 25.4546943 29.4045255 8.55151732"></polygon>
                                    <polygon id="Fill-2" fill="#F74D7B" points="7.35420595 21.2271294 7.35420595 12.7790662 3.70865597 10.6834248 3.70865597 23.3227708 14.7022707 29.6905355 14.7022707 25.4833089"></polygon>
                                    <polygon id="Fill-3" fill="#26ABE8" points="22.0503395 21.2271294 22.0503395 12.7790662 25.6958895 10.6834248 25.6958895 23.3227708 14.7022748 29.6905355 14.7022748 25.4833089"></polygon>
                                    <polygon id="Fill-4" fill="#FFFFFF" points="22.0503395 12.7790582 25.6958895 10.6834167 14.7022748 4.31565208 3.70865998 10.6834167 7.35420995 12.7790582 10.0618429 11.2107222 17.4090665 15.4664209 21.0546164 13.3707795 13.6936124 9.10710886 14.7022748 8.52287866"></polygon>
                                </g>
                                <g id="Page-1" transform="translate(37.583428, 11.315553)">
                                    <g id="Group-18" transform="translate(0.580593, 0.000000)">
                                        <polygon id="Fill-1" fill="#14315D" points="0.419407493 0.195083443 0.419407493 11.8996863 3.29681157 11.8996863 3.29681157 7.47797257 7.66967775 7.47797257 7.66967775 5.13700355 3.29681157 5.13700355 3.29681157 2.73103901 8.27126981 2.73103901 8.27126981 0.195083443"></polygon>
                                        <path d="M13.5397984,2.66601927 L13.5397984,5.68972382 L15.0028839,5.68972382 C16.1732877,5.68972382 16.774799,5.13697933 16.774799,4.12910473 C16.774799,3.12123012 16.2220545,2.66601927 15.0841889,2.66601927 L13.5397984,2.66601927 Z M15.2304893,0.195059221 C18.1728889,0.195059221 19.7009699,1.7069115 19.7009699,3.99903295 C19.7009699,5.51088522 19.0994586,6.55129796 17.9127454,7.23403349 L20.3349386,11.8996621 L17.2137004,11.8996621 L15.246718,7.90054032 C14.9378076,7.94930715 14.6615161,7.96561658 14.3363771,7.96561658 L13.5397984,7.96561658 L13.5397984,11.8996621 L10.6623944,11.8996621 L10.6623944,0.195059221 L15.2304893,0.195059221 Z" id="Fill-2" fill="#14315D"></path>
                                        <path d="M27.7687061,9.50995047 C29.589388,9.50995047 30.5322671,8.14439866 30.5322671,6.03111581 C30.5322671,4.04782399 29.589388,2.61727667 27.7687061,2.61727667 C25.9642529,2.61727667 25.0213738,4.06405269 25.0213738,6.03111581 C25.0213738,8.12816997 25.9642529,9.50995047 27.7687061,9.50995047 M27.7687061,1.61479547e-05 C31.328765,1.61479547e-05 33.5559717,2.34090443 33.5559717,6.03111581 C33.5559717,9.83508954 31.328765,12.1109823 27.7687061,12.1109823 C24.2247952,12.1109823 21.9976693,9.83508954 21.9976693,6.03111581 C21.9976693,2.34090443 24.2247952,1.61479547e-05 27.7687061,1.61479547e-05" id="Fill-4" fill="#14315D"></path>
                                        <polygon id="Fill-7" fill="#14315D" points="36.1794572 0.195083443 38.6829554 0.195083443 43.2184315 7.07152854 43.2184315 0.195083443 46.0633782 0.195083443 46.0633782 11.8996056 43.5761087 11.8996056 39.0080945 5.16954168 39.0080945 11.8996056 36.1794572 11.8996056"></polygon>
                                        <polygon id="Fill-9" fill="#14315D" points="51.6243544 2.73105516 48.2429726 2.73105516 48.2429726 0.195099591 57.8830595 0.195099591 57.8830595 2.73105516 54.5016777 2.73105516 54.5016777 11.8996217 51.6243544 11.8996217"></polygon>
                                        <g id="Group-13" transform="translate(59.376900, 0.000000)"></g>
                                        <path d="M60.8820011,8.30698435 C61.954952,9.15232979 63.2067414,9.73753167 64.2308447,9.73753167 C65.124957,9.73753167 65.6450826,9.31485895 65.6450826,8.61581399 C65.6450826,7.93307845 65.2387193,7.62424882 63.3692706,7.08773302 C60.9958442,6.40499748 59.9716602,5.4621184 59.9716602,3.59266966 C59.9716602,1.12170961 61.873647,-8.07397737e-06 64.2633021,-8.07397737e-06 C65.8076925,-8.07397737e-06 67.3033161,0.568965116 68.4737199,1.62560654 L67.1569349,3.38129294 C66.2954415,2.73101479 65.2874862,2.30834207 64.3283784,2.30834207 C63.483033,2.30834207 62.9302885,2.63348115 62.9302885,3.28375929 C62.9302885,4.04779977 63.5967953,4.2591765 65.5313203,4.89314521 C67.6934507,5.59219018 68.6363298,6.43753561 68.6363298,8.30698435 C68.6363298,10.6966394 66.9456389,12.1109581 64.2633021,12.1109581 C62.3450866,12.1109581 60.7357007,11.3956844 59.4839919,10.0626707 L60.8820011,8.30698435 Z" id="Fill-11" fill="#14315D"></path>
                                        <polygon id="Fill-14" fill="#14315D" points="71.2356176 0.195067295 74.1130217 0.195067295 74.1130217 11.8995894 71.2356176 11.8995894"></polygon>
                                        <path d="M80.047928,2.73105516 L80.047928,9.37989484 L81.4134798,9.37989484 C83.3642335,9.37989484 84.2583458,8.27448659 84.2583458,6.04736065 C84.2583458,3.88523024 83.3642335,2.73105516 81.4134798,2.73105516 L80.047928,2.73105516 Z M81.4134798,0.195099591 C85.3149872,0.195099591 87.2657409,2.50344974 87.2657409,5.85229336 C87.2657409,10.0627111 85.2336822,11.8996217 80.9744977,11.8996217 L77.1705239,11.8996217 L77.1705239,0.195099591 L81.4134798,0.195099591 Z" id="Fill-16" fill="#14315D"></path>
                                        <polygon id="Fill-17" fill="#14315D" points="89.9154265 0.195083443 98.0273516 0.195083443 98.0273516 2.73103901 92.7928306 2.73103901 92.7928306 4.82809317 97.5396834 4.82809317 97.5396834 7.20151958 92.7928306 7.20151958 92.7928306 9.37987869 98.0924279 9.37987869 98.0924279 11.8996056 89.9154265 11.8996056"></polygon>
                                    </g>
                                </g>
                            </g>
                        </g>
                    </g>
                </g>
            </g>
        </g>
    </g>
</svg>